<svg width="173" height="105" viewBox="0 0 173 105" fill="none" xmlns="http://www.w3.org/2000/svg">
<rect width="172.148" height="105" fill="#123284"/>
<g filter="url(#filter0_d_1_7)">
<path d="M22.5707 23.8182V18.7273H42.798V23.8182H35.798V42H29.5707V23.8182H22.5707ZM45.1758 42V18.7273H55.2213C56.9486 18.7273 58.4599 19.0417 59.7554 19.6705C61.0508 20.2992 62.0584 21.2045 62.7781 22.3864C63.4978 23.5682 63.8576 24.9848 63.8576 26.6364C63.8576 28.303 63.4864 29.7083 62.744 30.8523C62.0092 31.9962 60.9751 32.8598 59.6417 33.4432C58.316 34.0265 56.7667 34.3182 54.994 34.3182H48.994V29.4091H53.7213C54.4637 29.4091 55.0963 29.3182 55.619 29.1364C56.1493 28.947 56.5546 28.6477 56.8349 28.2386C57.1228 27.8295 57.2667 27.2955 57.2667 26.6364C57.2667 25.9697 57.1228 25.428 56.8349 25.0114C56.5546 24.5871 56.1493 24.2765 55.619 24.0795C55.0963 23.875 54.4637 23.7727 53.7213 23.7727H51.494V42H45.1758ZM58.8122 31.3182L64.6304 42H57.7667L52.0849 31.3182H58.8122ZM65.9145 23.8182V18.7273H86.1417V23.8182H79.1417V42H72.9145V23.8182H65.9145Z" fill="white"/>
</g>
<g filter="url(#filter1_d_1_7)">
<path d="M33.2273 70.4545H26.8182C26.7727 69.9242 26.6515 69.4432 26.4545 69.0114C26.2652 68.5795 26 68.2083 25.6591 67.8977C25.3258 67.5795 24.9205 67.3371 24.4432 67.1705C23.9659 66.9962 23.4242 66.9091 22.8182 66.9091C21.7576 66.9091 20.8598 67.1667 20.125 67.6818C19.3977 68.197 18.8447 68.9356 18.4659 69.8977C18.0947 70.8598 17.9091 72.0152 17.9091 73.3636C17.9091 74.7879 18.0985 75.9811 18.4773 76.9432C18.8636 77.8977 19.4205 78.6174 20.1477 79.1023C20.875 79.5795 21.75 79.8182 22.7727 79.8182C23.3561 79.8182 23.8788 79.7462 24.3409 79.6023C24.803 79.4508 25.2045 79.2348 25.5455 78.9545C25.8864 78.6742 26.1629 78.3371 26.375 77.9432C26.5947 77.5417 26.7424 77.0909 26.8182 76.5909L33.2273 76.6364C33.1515 77.6212 32.875 78.625 32.3977 79.6477C31.9205 80.6629 31.2424 81.6023 30.3636 82.4659C29.4924 83.322 28.4129 84.0114 27.125 84.5341C25.8371 85.0568 24.3409 85.3182 22.6364 85.3182C20.5 85.3182 18.5833 84.8598 16.8864 83.9432C15.197 83.0265 13.8598 81.678 12.875 79.8977C11.8977 78.1174 11.4091 75.9394 11.4091 73.3636C11.4091 70.7727 11.9091 68.5909 12.9091 66.8182C13.9091 65.0379 15.2576 63.6932 16.9545 62.7841C18.6515 61.8674 20.5455 61.4091 22.6364 61.4091C24.1061 61.4091 25.4583 61.6098 26.6932 62.0114C27.928 62.4129 29.0114 63 29.9432 63.7727C30.875 64.5379 31.625 65.4811 32.1932 66.6023C32.7614 67.7235 33.1061 69.0076 33.2273 70.4545ZM58.6392 73.3636C58.6392 75.9545 58.1354 78.1402 57.1278 79.9205C56.1203 81.6932 54.7604 83.0379 53.0483 83.9545C51.3362 84.8636 49.4271 85.3182 47.321 85.3182C45.1998 85.3182 43.2831 84.8598 41.571 83.9432C39.8665 83.0189 38.5104 81.6705 37.5028 79.8977C36.5028 78.1174 36.0028 75.9394 36.0028 73.3636C36.0028 70.7727 36.5028 68.5909 37.5028 66.8182C38.5104 65.0379 39.8665 63.6932 41.571 62.7841C43.2831 61.8674 45.1998 61.4091 47.321 61.4091C49.4271 61.4091 51.3362 61.8674 53.0483 62.7841C54.7604 63.6932 56.1203 65.0379 57.1278 66.8182C58.1354 68.5909 58.6392 70.7727 58.6392 73.3636ZM52.1392 73.3636C52.1392 71.9697 51.9536 70.7955 51.5824 69.8409C51.2188 68.8788 50.6771 68.1515 49.9574 67.6591C49.2453 67.1591 48.3665 66.9091 47.321 66.9091C46.2756 66.9091 45.393 67.1591 44.6733 67.6591C43.9612 68.1515 43.4195 68.8788 43.0483 69.8409C42.6847 70.7955 42.5028 71.9697 42.5028 73.3636C42.5028 74.7576 42.6847 75.9356 43.0483 76.8977C43.4195 77.8523 43.9612 78.5795 44.6733 79.0795C45.393 79.572 46.2756 79.8182 47.321 79.8182C48.3665 79.8182 49.2453 79.572 49.9574 79.0795C50.6771 78.5795 51.2188 77.8523 51.5824 76.8977C51.9536 75.9356 52.1392 74.7576 52.1392 73.3636ZM81.6989 61.7273V85H76.4261L68.017 72.7727H67.8807V85H61.5625V61.7273H66.9261L75.1989 73.9091H75.3807V61.7273H81.6989ZM97.233 69C97.1723 68.2424 96.8883 67.6515 96.3807 67.2273C95.8807 66.803 95.1193 66.5909 94.0966 66.5909C93.4451 66.5909 92.911 66.6705 92.4943 66.8295C92.0852 66.9811 91.7822 67.1894 91.5852 67.4545C91.3883 67.7197 91.286 68.0227 91.2784 68.3636C91.2633 68.6439 91.3125 68.8977 91.4261 69.125C91.5473 69.3447 91.7367 69.5455 91.9943 69.7273C92.2519 69.9015 92.5814 70.0606 92.983 70.2045C93.3845 70.3485 93.8617 70.4773 94.4148 70.5909L96.3239 71C97.6117 71.2727 98.714 71.6326 99.6307 72.0795C100.547 72.5265 101.297 73.053 101.881 73.6591C102.464 74.2576 102.892 74.9318 103.165 75.6818C103.445 76.4318 103.589 77.25 103.597 78.1364C103.589 79.6667 103.206 80.9621 102.449 82.0227C101.691 83.0833 100.608 83.8902 99.1989 84.4432C97.7973 84.9962 96.1117 85.2727 94.142 85.2727C92.1193 85.2727 90.3542 84.9735 88.8466 84.375C87.3466 83.7765 86.1799 82.8561 85.3466 81.6136C84.5208 80.3636 84.1042 78.7652 84.0966 76.8182H90.0966C90.1345 77.5303 90.3125 78.1288 90.6307 78.6136C90.9489 79.0985 91.3958 79.4659 91.9716 79.7159C92.5549 79.9659 93.2481 80.0909 94.0511 80.0909C94.7254 80.0909 95.2898 80.0076 95.7443 79.8409C96.1989 79.6742 96.5436 79.4432 96.7784 79.1477C97.0133 78.8523 97.1345 78.5152 97.142 78.1364C97.1345 77.7803 97.017 77.4697 96.7898 77.2045C96.5701 76.9318 96.2064 76.6894 95.6989 76.4773C95.1913 76.2576 94.5057 76.053 93.642 75.8636L91.3239 75.3636C89.2633 74.9167 87.6383 74.1705 86.4489 73.125C85.267 72.072 84.6799 70.6364 84.6875 68.8182C84.6799 67.3409 85.0739 66.0492 85.8693 64.9432C86.6723 63.8295 87.7822 62.9621 89.1989 62.3409C90.6231 61.7197 92.2557 61.4091 94.0966 61.4091C95.9754 61.4091 97.6004 61.7235 98.9716 62.3523C100.343 62.9811 101.4 63.8674 102.142 65.0114C102.892 66.1477 103.271 67.4773 103.278 69H97.233ZM106 85V61.7273H122.773V66.8182H112.318V70.8182H121.909V75.9091H112.318V79.9091H122.727V85H106ZM132.224 61.7273V85H125.906V61.7273H132.224ZM135.219 85V61.7273H141.537V79.9091H150.946V85H135.219Z" fill="white"/>
</g>
<path d="M18 21C18 22.6569 16.6569 24 15 24C13.3431 24 12 22.6569 12 21C12 19.3431 13.3431 18 15 18C16.6569 18 18 19.3431 18 21Z" fill="#B10C0C"/>
<path d="M163 82C163 83.6569 161.657 85 160 85C158.343 85 157 83.6569 157 82C157 80.3431 158.343 79 160 79C161.657 79 163 80.3431 163 82Z" fill="#B10C0C"/>
<defs>
<filter id="filter0_d_1_7" x="18.5707" y="18.7273" width="71.571" height="31.2727" filterUnits="userSpaceOnUse" color-interpolation-filters="sRGB">
<feFlood flood-opacity="0" result="BackgroundImageFix"/>
<feColorMatrix in="SourceAlpha" type="matrix" values="0 0 0 0 0 0 0 0 0 0 0 0 0 0 0 0 0 0 127 0" result="hardAlpha"/>
<feOffset dy="4"/>
<feGaussianBlur stdDeviation="2"/>
<feComposite in2="hardAlpha" operator="out"/>
<feColorMatrix type="matrix" values="0 0 0 0 0 0 0 0 0 0 0 0 0 0 0 0 0 0 0.25 0"/>
<feBlend mode="normal" in2="BackgroundImageFix" result="effect1_dropShadow_1_7"/>
<feBlend mode="normal" in="SourceGraphic" in2="effect1_dropShadow_1_7" result="shape"/>
</filter>
<filter id="filter1_d_1_7" x="7.40909" y="61.4091" width="147.537" height="31.9091" filterUnits="userSpaceOnUse" color-interpolation-filters="sRGB">
<feFlood flood-opacity="0" result="BackgroundImageFix"/>
<feColorMatrix in="SourceAlpha" type="matrix" values="0 0 0 0 0 0 0 0 0 0 0 0 0 0 0 0 0 0 127 0" result="hardAlpha"/>
<feOffset dy="4"/>
<feGaussianBlur stdDeviation="2"/>
<feComposite in2="hardAlpha" operator="out"/>
<feColorMatrix type="matrix" values="0 0 0 0 0 0 0 0 0 0 0 0 0 0 0 0 0 0 0.25 0"/>
<feBlend mode="normal" in2="BackgroundImageFix" result="effect1_dropShadow_1_7"/>
<feBlend mode="normal" in="SourceGraphic" in2="effect1_dropShadow_1_7" result="shape"/>
</filter>
</defs>
</svg>
